<?xml version="1.0" encoding="UTF-8"?>
<svg width="116px" height="36px" viewBox="0 0 110 36" version="1.1" xmlns="http://www.w3.org/2000/svg" xmlns:xlink="http://www.w3.org/1999/xlink">
    <title>Delta.Exchange_Final_Logo-05</title>
    <defs>
        <linearGradient x1="90.8835511%" y1="73.9190233%" x2="19.8482933%" y2="48.1300918%" id="linearGradient-1">
            <stop stop-color="#1C53A4" offset="0%"></stop>
            <stop stop-color="#00B5EB" offset="100%"></stop>
        </linearGradient>
        <linearGradient x1="89.1979211%" y1="25.3540828%" x2="20.4944515%" y2="52.1122062%" id="linearGradient-2">
            <stop stop-color="#1C53A4" offset="0%"></stop>
            <stop stop-color="#00B5EB" offset="100%"></stop>
        </linearGradient>
    </defs>
    <g id="Page-1" stroke="none" stroke-width="1" fill="none" fill-rule="evenodd">
        <g id="Artboard" transform="translate(-114.000000, -95.000000)" fill-rule="nonzero">
            <g id="Delta.Exchange_Final_Logo-05" transform="translate(114.000000, 95.000000)">
                <polygon id="Path" fill="url(#linearGradient-1)" points="11.5403069 11.7489625 23.0730058 17.5169322 34.6089451 11.7489625 11.5403069 0.216263641"></polygon>
                <polygon id="Path" fill="url(#linearGradient-2)" points="11.5403069 23.2816615 11.5403069 34.8176008 34.6089451 23.2816615 23.0730058 17.5169322"></polygon>
                <polygon id="Path" fill="#00B5EB" points="34.6089451 23.2816615 34.6089451 11.7489625 23.0730058 17.5169322"></polygon>
                <polygon id="Path" fill="#06F922" points="11.5403069 11.7489625 11.5403069 23.2816615 0.00760797172 17.5169322"></polygon>
                <path d="M46.141644,5.5726984 L50.5453917,5.5726984 C51.5363747,5.55421061 52.5177608,5.76958266 53.4099339,6.20134228 C54.2157509,6.59027289 54.8912134,7.20494374 55.3541934,7.97061837 C56.2787504,9.60987583 56.2787504,11.6132657 55.3541934,13.2525232 C54.8914084,14.0191575 54.2159786,14.6349243 53.4099339,15.0250397 C52.5175277,15.4557968 51.5361265,15.670062 50.5453917,15.6504432 L46.141644,15.6504432 L46.141644,5.5726984 Z M50.4611404,14.0691121 C51.1336956,14.0835473 51.8000644,13.9380568 52.4053999,13.6446155 C52.9480443,13.379589 53.3993305,12.9587646 53.7015728,12.4359342 C54.3053205,11.2969113 54.3053205,9.93271117 53.7015728,8.7936882 C53.3984038,8.2715961 52.9473725,7.85100935 52.4053999,7.58500692 C51.7995414,7.29307959 51.13354,7.14766927 50.4611404,7.16051027 L48.014614,7.16051027 L48.014614,14.0691121 L50.4611404,14.0691121 Z" id="Shape" fill="#FFFFFF"></path>
                <path d="M64.7708899,12.3840873 L58.7372048,12.3840873 C58.827762,12.9233783 59.1254422,13.4059457 59.5667555,13.7288667 C60.051654,14.0716512 60.6356501,14.2458255 61.2290973,14.2246529 C62.0101964,14.2490132 62.7662192,13.9473084 63.3159358,13.3918618 L64.2880655,14.5000897 C63.9347062,14.915894 63.4838079,15.2376461 62.9756904,15.4365746 C61.6661116,15.9133772 60.2201039,15.8456868 58.9607946,15.2486295 C58.3394794,14.9337993 57.8219877,14.4466821 57.4701957,13.8455223 C56.7791629,12.580309 56.7791629,11.0504738 57.4701957,9.78526052 C57.8014413,9.19412543 58.2921087,8.70794924 58.8862647,8.38215329 C59.5127167,8.0398298 60.2171799,7.86566772 60.9309775,7.87664583 C61.6323481,7.86472291 62.3247417,8.0355878 62.9400456,8.37243199 C63.5229507,8.69813286 64.0015926,9.1823926 64.3204698,9.76905835 C64.6619644,10.4084314 64.8337798,11.1247005 64.8194964,11.849416 C64.8065347,11.976873 64.7903325,12.1550967 64.7708899,12.3840873 Z M59.4500999,9.82738614 C59.0470347,10.1747687 58.7881819,10.6601178 58.724243,11.1883677 L63.0729033,11.1883677 C63.0137072,10.66484 62.7619128,10.1820416 62.3664891,9.833867 C61.9592086,9.48360593 61.4354893,9.2986278 60.8985732,9.31539782 C60.3695338,9.3041198 59.8545384,9.48615396 59.4500999,9.82738614 L59.4500999,9.82738614 Z" id="Shape" fill="#FFFFFF"></path>
                <polygon id="Path" fill="#FFFFFF" points="66.2388058 4.96997797 68.0372458 4.96997797 68.0372458 15.6634049 66.2388058 15.6634049"></polygon>
                <path d="M75.1046288,15.2324274 C74.8791283,15.4150729 74.6173334,15.5476272 74.3366463,15.6212793 C74.0204439,15.7106304 73.6930835,15.7542785 73.3645166,15.7508966 C72.6567474,15.7964145 71.9591618,15.563886 71.4202572,15.1028101 C70.9309133,14.5847842 70.680633,13.8856443 70.7300451,13.1747528 L70.7300451,9.46121728 L69.463036,9.46121728 L69.463036,8.02246529 L70.7300451,8.02246529 L70.7300451,6.26615093 L72.5284851,6.26615093 L72.5284851,8.02246529 L74.5861596,8.02246529 L74.5861596,9.46121728 L72.5284851,9.46121728 L72.5284851,13.116425 C72.5064172,13.4274373 72.605066,13.7349896 72.8039218,13.9751396 C73.0133018,14.1817893 73.3010227,14.2890951 73.5945873,14.270019 C73.957689,14.2804613 74.3133932,14.166087 74.6023618,13.9459757 L75.1046288,15.2324274 Z" id="Path" fill="#FFFFFF"></path>
                <path d="M81.8350069,8.68999436 C82.4344869,9.23438701 82.7358471,10.050976 82.7358471,11.1462421 L82.7358471,15.6504432 L81.0378605,15.6504432 L81.0378605,14.7171986 C80.806363,15.0615406 80.4783186,15.3298381 80.0948947,15.4884215 C79.6258068,15.6774715 79.12282,15.7679209 78.6172575,15.754137 C78.0985335,15.7659077 77.5834031,15.6653136 77.107216,15.4592576 C76.7035553,15.2846611 76.3567399,15.000699 76.1059224,14.6394282 C75.8694113,14.2884302 75.7461415,13.8733845 75.7527153,13.4501896 C75.7311126,12.8050229 76.0173814,12.1879814 76.5239382,11.7878477 C77.0359265,11.3644312 77.8449545,11.152723 78.9510221,11.152723 L80.9374071,11.152723 L80.9374071,11.0360674 C80.9663974,10.5734691 80.7897073,10.1216643 80.4545827,9.80146268 C80.0471246,9.4848907 79.5369665,9.33022738 79.0223116,9.36724474 C78.5899423,9.36748134 78.1602644,9.43526767 77.7488217,9.56815154 C77.3629534,9.68695621 77.0033102,9.878326 76.6892003,10.1319868 L75.982786,8.81961166 C76.4202842,8.49754614 76.9135601,8.25914781 77.4377402,8.11643783 C78.022465,7.94927191 78.6280411,7.86634618 79.2361801,7.87016497 C80.3703315,7.87448554 81.2366071,8.14776201 81.8350069,8.68999436 Z M80.1953481,14.1339208 C80.5390274,13.9339725 80.8016391,13.6197558 80.9374071,13.2460423 L80.9374071,12.3549234 L79.0773989,12.3549234 C78.0447812,12.3549234 77.5273921,12.6951688 77.5252318,13.3756596 C77.5159027,13.6837723 77.6619961,13.9759591 77.9140837,14.1533634 C78.2336731,14.3624223 78.6118731,14.4635028 78.9931477,14.4417619 C79.4142483,14.4489164 79.8295104,14.3425824 80.1953481,14.1339208 L80.1953481,14.1339208 Z" id="Shape" fill="#FFFFFF"></path>
                <path d="M84.4921615,15.4138916 C84.0715165,15.0205122 83.9889451,14.3840742 84.2952794,13.8963766 C84.6016136,13.4086791 85.2107877,13.2067425 85.7477864,13.4148816 C86.2847852,13.6230207 86.5987368,14.1827579 86.4963688,14.7495121 C86.3940008,15.3162663 85.9040739,15.7308058 85.328193,15.7379348 C85.017222,15.7470712 84.7157434,15.6302191 84.4921615,15.4138916 L84.4921615,15.4138916 Z" id="Path" fill="#FFFFFF"></path>
                <polygon id="Path" fill="#FFFFFF" points="53.095612 28.7839157 53.095612 29.4320022 46.141644 29.4320022 46.141644 19.3542574 52.878503 19.3542574 52.878503 20.0023439 46.8707413 20.0023439 46.8707413 23.975114 52.2433782 23.975114 52.2433782 24.6232005 46.8707413 24.6232005 46.8707413 28.7547518"></polygon>
                <polygon id="Path" fill="#FFFFFF" points="60.1921589 29.4482043 57.6160152 26.0943568 55.0236692 29.4482043 54.2038398 29.4482043 57.1850377 25.5758876 54.362621 21.9336416 55.1824504 21.9336416 57.6030534 25.0574184 60.020416 21.9336416 60.8272837 21.9336416 58.0048671 25.5758876 61.0281905 29.4482043"></polygon>
                <path d="M63.3450996,29.0139864 C62.7758747,28.6965004 62.3067238,28.2262271 61.9905989,27.6562452 C61.3361571,26.4220163 61.3361571,24.9436275 61.9905989,23.7093985 C62.3061492,23.140644 62.7755909,22.6723254 63.3450996,22.3581382 C63.9410361,22.0330734 64.6105845,21.8668022 65.2893591,21.8753138 C65.8587553,21.8671424 66.4226225,21.9878919 66.9387392,22.2285209 C67.4247195,22.4563321 67.8400976,22.8112508 68.1409396,23.255738 L67.6062683,23.6445899 C67.3570296,23.2928815 67.0240202,23.0088768 66.637379,22.8182796 C66.2234783,22.6299099 65.7732467,22.5347749 65.318523,22.5396024 C64.7679913,22.5310251 64.2248825,22.667361 63.7436728,22.9349352 C63.2805095,23.1954442 62.9007265,23.5819689 62.6484067,24.0496439 C62.1212086,25.0906071 62.1212086,26.3204027 62.6484067,27.3613658 C62.8998543,27.8296838 63.2798514,28.2164264 63.7436728,28.4760746 C64.2239965,28.7462198 64.7675185,28.8837778 65.318523,28.8746478 C65.7736514,28.880072 66.2242431,28.7837539 66.637379,28.5927302 C67.0371546,28.4026645 67.3809733,28.1124279 67.6354321,27.7502177 L68.1701035,28.1390696 C67.8685014,28.5836787 67.4534088,28.9394724 66.9679031,29.1695271 C66.4510685,29.4076663 65.8875293,29.5272384 65.318523,29.5194938 C64.6274812,29.5293551 63.9462969,29.3548645 63.3450996,29.0139864 Z" id="Path" fill="#FFFFFF"></path>
                <path d="M75.4837594,22.6951432 C76.0324726,23.2416961 76.3068292,24.0291212 76.3068292,25.0574184 L76.3068292,29.4482043 L75.5874533,29.4482043 L75.5874533,25.1125058 C75.6349832,24.4093927 75.4019428,23.7160974 74.9393668,23.1844485 C74.4584686,22.7281279 73.8089439,22.4932184 73.1474077,22.536362 C72.3714622,22.4941085 71.6137048,22.7812091 71.0605692,23.3270275 C70.5313201,23.9072243 70.2559762,24.6749204 70.2958271,25.459232 L70.2958271,29.461166 L69.5764512,29.461166 L69.5764512,18.7677391 L70.2958271,18.7677391 L70.2958271,23.5052513 C70.5470265,22.9950344 70.9499999,22.5750818 71.4494211,22.3030509 C72.0025981,22.0097184 72.6219031,21.8635401 73.2478611,21.8785542 C74.0738102,21.8312409 74.8827082,22.1266645 75.4837594,22.6951432 Z" id="Path" fill="#FFFFFF"></path>
                <path d="M83.3515293,22.5882089 C83.8505559,23.0613121 84.1000692,23.7612455 84.1000692,24.6815283 L84.1000692,29.4482043 L83.4066166,29.4482043 L83.4066166,28.1099057 C83.1679676,28.5501425 82.80206,28.9081447 82.3567165,29.1371228 C81.8436728,29.3946182 81.2746353,29.5204523 80.7008556,29.5032917 C79.9923693,29.5430695 79.2921926,29.3345062 78.7209514,28.913533 C78.2701826,28.5344759 78.005416,27.9789625 77.9948561,27.3900948 C77.9842962,26.801227 78.2289756,26.236578 78.665864,25.8416031 C79.1108834,25.4527512 79.8226984,25.2583252 80.801309,25.2583252 L83.3936549,25.2583252 L83.3936549,24.6523644 C83.4342502,24.0636765 83.2275636,23.4847192 82.8233388,23.0548312 C82.36231,22.661658 81.7654425,22.4650292 81.160997,22.5071981 C80.6718048,22.5060582 80.1864839,22.5938991 79.7287259,22.7664327 C79.3020589,22.9229776 78.9085576,23.158199 78.5686511,23.4598852 L78.2089631,22.9414161 C78.6044216,22.5926065 79.0646695,22.3250461 79.5634638,22.153991 C80.0956522,21.9679933 80.655572,21.8737602 81.2193248,21.8752949 C82.1417679,21.8752949 82.8525027,22.1129455 83.3515293,22.5882089 Z M82.3793996,28.4825555 C82.8292402,28.1767548 83.1742532,27.7401154 83.3677314,27.2317486 L83.3677314,25.81892 L80.8045494,25.81892 C80.0657308,25.81892 79.5256588,25.953938 79.1843332,26.2239741 C78.8526582,26.4938435 78.6686893,26.9050679 78.6885471,27.332202 C78.6794449,27.7913706 78.8992956,28.2249988 79.2750653,28.4890363 C79.726117,28.7989161 80.2681413,28.9484007 80.8142707,28.913533 C81.3713355,28.9290056 81.9204898,28.7790313 82.3923613,28.4825555 L82.3793996,28.4825555 Z" id="Shape" fill="#FFFFFF"></path>
                <path d="M91.7442492,22.6951432 C92.2886418,23.2427763 92.5640786,24.0302013 92.5640786,25.0574184 L92.5640786,29.4482043 L91.8447026,29.4482043 L91.8447026,25.1125058 C91.8922325,24.4093927 91.6591921,23.7160974 91.1966161,23.1844485 C90.7157179,22.7281279 90.0661932,22.4932184 89.404657,22.536362 C88.6287748,22.494516 87.8711768,22.7815562 87.3178185,23.3270275 C86.7885695,23.9072243 86.5132256,24.6749204 86.5530765,25.459232 L86.5530765,29.461166 L85.8337005,29.461166 L85.8337005,21.9336416 L86.5239126,21.9336416 L86.5239126,23.5538578 C86.7762402,23.033225 87.1807988,22.6015452 87.6839874,22.3160126 C88.2402361,22.0070844 88.8690378,21.8526811 89.5051104,21.8688329 C90.3333437,21.8247618 91.1431891,22.1236194 91.7442492,22.6951432 Z" id="Path" fill="#FFFFFF"></path>
                <path d="M101.397497,21.9336416 L101.397497,28.6510579 C101.397497,29.8975443 101.095057,30.8189072 100.490176,31.4151468 C99.8874558,32.0113863 98.9736539,32.3062657 97.7552513,32.3062657 C97.0937298,32.3062657 96.4367747,32.1967136 95.8109919,31.9822224 C95.2565218,31.8048808 94.7492166,31.5047069 94.3268738,31.1040653 L94.7157257,30.5564322 C95.1101192,30.911374 95.5703075,31.1855053 96.0702264,31.3632999 C96.6108928,31.5562021 97.1812189,31.6527188 97.7552513,31.6484579 C98.7533045,31.6484579 99.4921231,31.4119063 99.9717071,30.9388032 C100.451291,30.4657001 100.691083,29.7290418 100.691083,28.7288283 L100.691083,27.4618193 C100.394017,27.9976021 99.9498909,28.4372307 99.4111122,28.7288283 C98.8434429,29.0290325 98.2094054,29.1816918 97.5673062,29.1727676 C96.9018739,29.1811684 96.2451865,29.02062 95.6586915,28.7061453 C95.0995136,28.4063193 94.6341113,27.9577387 94.3139121,27.4099723 C93.6633066,26.2368513 93.6633066,24.81123 94.3139121,23.638109 C94.6324866,23.0890671 95.0982987,22.6400915 95.6586915,22.3419361 C96.2462821,22.0310316 96.9025932,21.8728038 97.5673062,21.8817947 C98.220757,21.8720354 98.8657372,22.0304907 99.4402761,22.3419361 C99.9848215,22.6391099 100.429946,23.0898688 100.720247,23.638109 L100.720247,21.9401224 L101.397497,21.9336416 Z M99.1940033,28.1455505 C99.6549565,27.9019025 100.03708,27.5321421 100.29575,27.0794482 C100.565475,26.6037981 100.70204,26.0642536 100.691083,25.5175598 C100.70297,24.9728135 100.566304,24.4351115 100.29575,23.9621523 C100.035771,23.5129362 99.6537477,23.1466431 99.1940033,22.9057713 C98.2025674,22.3959336 97.0260176,22.3959336 96.0345817,22.9057713 C95.5796544,23.1498176 95.2015595,23.5155712 94.942556,23.9621523 C94.6710239,24.4348506 94.5332437,24.9725295 94.5439828,25.5175598 C94.5340121,26.0645535 94.6717016,26.6041174 94.942556,27.0794482 C95.2002714,27.5295064 95.5784629,27.8987201 96.0345817,28.1455505 C97.0270455,28.651124 98.2015395,28.651124 99.1940033,28.1455505 L99.1940033,28.1455505 Z" id="Shape" fill="#FFFFFF"></path>
                <path d="M109.88743,25.8610456 L103.406565,25.8610456 C103.416064,26.4129029 103.570263,26.9525984 103.853745,27.4261745 C104.126658,27.8753887 104.517907,28.2408535 104.984656,28.4825555 C105.485079,28.7406017 106.041949,28.8697954 106.604872,28.8584456 C107.072104,28.8622947 107.535208,28.7707764 107.965854,28.5894897 C108.374424,28.4206168 108.733441,28.1507963 109.009273,27.8053051 L109.427289,28.2816487 C109.095116,28.6780146 108.6729,28.989121 108.195924,29.1889697 C107.026288,29.6626762 105.707608,29.5986972 104.589323,29.0139864 C104.014224,28.7005976 103.538298,28.2325287 103.21538,27.6627261 C102.875732,27.0613097 102.703416,26.3798787 102.716353,25.6893027 C102.706377,25.0057515 102.867922,24.3306056 103.186216,23.7256007 C103.484872,23.161358 103.933377,22.6904273 104.482389,22.3646191 C105.622784,21.7168435 107.019884,21.7168435 108.16028,22.3646191 C108.709429,22.6830563 109.158438,23.1489033 109.456453,23.7093985 C109.77189,24.3083584 109.932311,24.9767764 109.923075,25.653658 L109.88743,25.8610456 Z M104.890683,22.8604052 C104.469641,23.0952377 104.119365,23.4387995 103.876428,23.855218 C103.618261,24.2957521 103.467298,24.7908195 103.435729,25.3004508 L109.197218,25.3004508 C109.176442,24.7918696 109.027047,24.2968606 108.763,23.8616989 C108.249443,23.0040908 107.31589,22.4872363 106.316474,22.5071981 C105.818758,22.5004872 105.32771,22.6221333 104.890683,22.8604052 L104.890683,22.8604052 Z" id="Shape" fill="#FFFFFF"></path>
            </g>
        </g>
    </g>
</svg>