<svg width="120" height="31" viewBox="0 0 120 31" fill="none" xmlns="http://www.w3.org/2000/svg">
<path d="M3.78468 10.1025C5.86452 10.1025 7.55056 8.41163 7.55056 6.32584C7.55056 4.24006 5.86452 2.54919 3.78468 2.54919C1.70484 2.54919 0.0187988 4.24006 0.0187988 6.32584C0.0187988 8.41163 1.70484 10.1025 3.78468 10.1025Z" fill="white"/>
<path d="M21.0325 10.1025H15.8168C15.1766 10.1025 14.6494 9.57382 14.6494 8.93178V3.70113C14.6494 3.0591 15.1766 2.53036 15.8168 2.53036H21.0325C21.6727 2.53036 22.2 3.0591 22.2 3.70113V8.93178C22.2 9.5927 21.6727 10.1025 21.0325 10.1025Z" fill="#00FFB9"/>
<path d="M7.5506 13.3293H7.32464H1.6005C0.715518 13.3293 0 14.0469 0 14.9344V20.9015V26.8497C0 27.7372 0.715518 28.4548 1.6005 28.4548H5.95009C6.83508 28.4548 7.5506 27.7372 7.5506 26.8497V22.5066C7.5506 21.6191 8.26611 20.9015 9.1511 20.9015H13.2747C14.1597 20.9015 14.8752 20.184 14.8752 19.2964V14.9344C14.8752 14.0469 14.1597 13.3293 13.2747 13.3293H7.5506Z" fill="#00DAFF"/>
<path d="M36.435 0H38.6569V13.1805H36.435V0Z" fill="white"/>
<path d="M41.0293 4.55084H43.2512V5.40058C43.7596 4.75855 44.4939 4.38089 45.3412 4.38089C46.3204 4.38089 47.2054 4.89073 47.8079 5.74048C48.3728 4.90962 49.2578 4.38089 50.3687 4.38089C52.1952 4.38089 53.5509 5.8349 53.5509 7.72322V13.1805H51.329V7.89317C51.329 7.04342 50.7265 6.36363 49.898 6.36363C48.9941 6.36363 48.4104 7.10007 48.4104 7.98759V13.1805H46.1886V7.89317C46.1886 7.04342 45.586 6.36363 44.7199 6.36363C43.8349 6.36363 43.27 7.10007 43.27 7.98759V13.1805H41.0293V4.55084Z" fill="white"/>
<path d="M55.6034 4.55084H57.8253V5.47612C58.5031 4.79632 59.4258 4.38089 60.5555 4.38089C62.8716 4.38089 64.7922 6.36363 64.7922 8.8751C64.7922 11.3866 62.8716 13.3693 60.5555 13.3693C59.4258 13.3693 58.5031 12.9539 57.8253 12.2741V17.146H55.6034V4.55084ZM62.5891 8.8751C62.5891 7.49662 61.497 6.40139 60.1413 6.40139C58.7856 6.40139 57.6746 7.49662 57.6746 8.8751C57.6746 10.2536 58.7856 11.3488 60.1413 11.3488C61.497 11.3299 62.5891 10.2347 62.5891 8.8751Z" fill="white"/>
<path d="M65.9031 8.8751C65.9031 6.38251 67.8613 4.38089 70.4598 4.38089C73.0206 4.38089 74.9977 6.36363 74.9977 8.8751C74.9977 11.3866 73.0206 13.3693 70.4598 13.3693C67.8613 13.3504 65.9031 11.3677 65.9031 8.8751ZM72.8511 8.8751C72.8511 7.51551 71.7779 6.45805 70.4598 6.45805C69.0853 6.45805 68.012 7.51551 68.012 8.8751C68.012 10.2347 69.0853 11.311 70.4598 11.311C71.7779 11.2922 72.8511 10.2158 72.8511 8.8751Z" fill="white"/>
<path d="M75.9014 12.0664L77.1442 10.5368C77.7467 11.16 78.5375 11.5376 79.2154 11.5376C79.8932 11.5376 80.3075 11.1789 80.3075 10.7068C80.3075 10.1025 79.6108 9.95144 78.5752 9.59266C77.2383 9.12057 76.1085 8.51631 76.1085 7.00565C76.1085 5.24951 77.6149 4.362 79.2719 4.362C80.5146 4.362 81.569 4.85296 82.2281 5.58941L80.9289 6.91124C80.4393 6.42027 79.7803 6.08038 79.1966 6.08038C78.6505 6.08038 78.2928 6.36362 78.2928 6.81682C78.2928 7.4022 78.9141 7.57215 79.9121 7.89316C81.1925 8.32748 82.4917 8.91286 82.4917 10.6312C82.4917 12.3874 81.136 13.3315 79.2719 13.3315C77.8032 13.3504 76.5981 12.7462 75.9014 12.0664Z" fill="white"/>
<path d="M83.2639 12.0664L84.5066 10.5368C85.1091 11.16 85.9 11.5376 86.5778 11.5376C87.2557 11.5376 87.6699 11.1789 87.6699 10.7068C87.6699 10.1025 86.9733 9.95144 85.9376 9.59266C84.6007 9.12057 83.471 8.51631 83.471 7.00565C83.471 5.24951 84.9773 4.362 86.6343 4.362C87.8771 4.362 88.9315 4.85296 89.5906 5.58941L88.2913 6.91124C87.8018 6.42027 87.1427 6.08038 86.559 6.08038C86.013 6.08038 85.6552 6.36362 85.6552 6.81682C85.6552 7.4022 86.2766 7.57215 87.2745 7.89316C88.5549 8.32748 89.8542 8.91286 89.8542 10.6312C89.8542 12.3874 88.4984 13.3315 86.6343 13.3315C85.1656 13.3504 83.9605 12.7462 83.2639 12.0664Z" fill="white"/>
<path d="M91.3227 1.73725C91.3227 1.01969 91.9252 0.453186 92.6219 0.453186C93.3374 0.453186 93.9211 1.01969 93.9211 1.73725C93.9211 2.45481 93.3374 3.02131 92.6219 3.02131C91.9064 3.02131 91.3227 2.45481 91.3227 1.73725ZM91.5298 4.55085H93.714V13.1805H91.5298V4.55085Z" fill="white"/>
<path d="M98.1578 12.0664L98.1013 13.1805H96.0301V0H98.252V5.53278C98.911 4.73969 99.9466 4.34314 101.001 4.34314C103.411 4.34314 105.313 6.34476 105.313 8.85623C105.313 11.3677 103.411 13.3693 101.001 13.3693C99.8148 13.3504 98.798 12.8784 98.1578 12.0664ZM103.091 8.85623C103.091 7.43999 102.018 6.34477 100.624 6.34477C99.2499 6.34477 98.1578 7.43999 98.1578 8.85623C98.1578 10.2725 99.2499 11.3866 100.624 11.3866C102.018 11.3866 103.091 10.2725 103.091 8.85623Z" fill="white"/>
<path d="M107.045 0H109.248V13.1805H107.045V0Z" fill="white"/>
<path d="M119.981 9.25276H113.203C113.372 10.6501 114.37 11.5565 115.632 11.5565C116.535 11.5565 117.383 11.1033 117.835 10.3102L119.605 11.0467C118.908 12.4629 117.458 13.3504 115.65 13.3504C112.92 13.3504 111.037 11.3677 111.037 8.85621C111.037 6.34474 112.958 4.362 115.575 4.362C118.061 4.362 119.962 6.11814 120 8.7618L119.981 9.25276ZM113.429 7.57215H117.646C117.289 6.70352 116.611 6.15591 115.594 6.15591C114.539 6.13703 113.805 6.68464 113.429 7.57215Z" fill="white"/>
<path d="M36.435 16.7494H44.6258V18.9776H38.6569V22.2256H43.9479V24.4538H38.6569V29.9299H36.435V16.7494Z" fill="white"/>
<path d="M46.038 18.4867C46.038 17.7691 46.6406 17.2026 47.3372 17.2026C48.0528 17.2026 48.6365 17.7691 48.6365 18.4867C48.6365 19.2043 48.0528 19.7708 47.3372 19.7708C46.6217 19.7708 46.038 19.2043 46.038 18.4867ZM46.2451 21.3003H48.4294V29.93H46.2451V21.3003Z" fill="white"/>
<path d="M50.7453 21.3003H52.9484V22.0934C53.5697 21.4702 54.3794 21.1303 55.2456 21.1303C56.9779 21.1303 58.3336 22.5466 58.3336 24.3594V29.9488H56.1117V24.6426C56.1117 23.7362 55.4339 23.0942 54.5489 23.0942C53.6262 23.0942 52.9484 23.7551 52.9296 24.6426V29.9488H50.7265V21.3003H50.7453Z" fill="white"/>
<path d="M59.8777 25.6057C59.8777 23.1131 61.8171 21.0926 64.1331 21.0926C65.3571 21.0926 66.2985 21.5458 66.9387 22.2822V21.3003H69.1606V29.9299H67.0894L67.0329 28.8158C66.3927 29.6278 65.4135 30.0999 64.1331 30.0999C61.7983 30.0999 59.8777 28.1171 59.8777 25.6057ZM66.9952 25.6057C66.9952 24.2272 65.9219 23.132 64.5474 23.132C63.1728 23.132 62.0807 24.2272 62.0807 25.6057C62.0807 26.9842 63.154 28.0983 64.5474 28.0983C65.9219 28.0794 66.9952 26.9653 66.9952 25.6057Z" fill="white"/>
<path d="M71.4577 21.3003H73.6608V22.0934C74.2821 21.4702 75.0918 21.1303 75.958 21.1303C77.6903 21.1303 79.046 22.5466 79.046 24.3594V29.9488H76.8241V24.6426C76.8241 23.7362 76.1462 23.0942 75.2613 23.0942C74.3386 23.0942 73.6608 23.7551 73.6419 24.6426V29.9488H71.4389V21.3003H71.4577Z" fill="white"/>
<path d="M80.59 25.6245C80.59 23.132 82.5482 21.1303 85.1467 21.1303C85.7869 21.1303 86.4271 21.2625 86.9732 21.508V23.9817C86.5401 23.4719 85.8999 23.1508 85.1467 23.1508C83.7533 23.1508 82.7177 24.2461 82.7177 25.6245C82.7177 27.003 83.7345 28.0794 85.1467 28.0794C85.8999 28.0794 86.5401 27.7583 86.9732 27.2485V29.7411C86.4271 29.9866 85.7869 30.1187 85.1467 30.1187C82.5482 30.0998 80.59 28.1171 80.59 25.6245Z" fill="white"/>
<path d="M97.2165 26.0022H90.4378C90.6073 27.3996 91.6053 28.306 92.8668 28.306C93.7707 28.306 94.618 27.8528 95.0699 27.0597L96.8399 27.7961C96.1432 29.2124 94.6933 30.0999 92.8857 30.0999C90.1554 30.0999 88.2725 28.1171 88.2725 25.6057C88.2725 23.0942 90.1931 21.1115 92.8104 21.1115C95.2958 21.1115 97.1976 22.8676 97.2353 25.5112L97.2165 26.0022ZM90.645 24.3216H94.8628C94.505 23.453 93.8271 22.9054 92.8104 22.9054C91.7747 22.8865 91.0216 23.4341 90.645 24.3216Z" fill="white"/>
</svg>
