<svg width="138" height="30" viewBox="0 0 138 30" fill="none" xmlns="http://www.w3.org/2000/svg">
<g clip-path="url(#clip0)">
<path d="M82.1493 1.65934C83.3671 1.65934 84.2945 1.93869 84.9313 2.49739C85.5682 3.04491 85.8866 3.76005 85.8866 4.64279C85.8866 4.8998 85.8643 5.14004 85.8196 5.36352C85.6855 6.1457 85.3447 6.84407 84.7973 7.45864C84.2498 8.07321 83.518 8.50899 82.6018 8.766L84.4956 13.4256H81.2611L79.6019 8.98389H78.9148L78.1271 13.4256H75.2612L77.3394 1.65934H82.1493ZM82.8867 5.48084C82.9091 5.30206 82.9202 5.18473 82.9202 5.12886C82.9202 4.77129 82.8029 4.49753 82.5683 4.30757C82.3448 4.10644 82.0096 4.00588 81.5627 4.00588H79.7862L79.2667 6.95581H81.0432C81.5683 6.95581 81.9817 6.82731 82.2834 6.57031C82.5962 6.3133 82.7973 5.95015 82.8867 5.48084ZM89.4621 3.10078C89.0152 3.10078 88.6577 2.98346 88.3895 2.7488C88.1325 2.50297 88.004 2.19569 88.004 1.82695C88.004 1.32412 88.1996 0.893919 88.5906 0.536352C88.9817 0.178784 89.4565 0 90.0152 0C90.4621 0 90.814 0.122914 91.071 0.368742C91.328 0.603396 91.4565 0.91068 91.4565 1.2906C91.4565 1.78225 91.2609 2.20686 90.8699 2.56443C90.4788 2.922 90.0096 3.10078 89.4621 3.10078ZM90.7023 4.07292L89.0599 13.4256H86.194L87.8365 4.07292H90.7023ZM97.3042 8.766L100.405 13.4256H96.8517L94.6897 9.52024L94.0026 13.4256H91.1367L93.3322 1.02242H96.198L94.9914 7.8609L98.4773 4.07292H102.014L97.3042 8.766ZM107.664 8.766L110.765 13.4256H107.212L105.05 9.52024L104.363 13.4256H101.497L103.692 1.02242H106.558L105.351 7.8609L108.837 4.07292H112.374L107.664 8.766ZM117.689 3.93883C118.896 3.93883 119.851 4.26846 120.555 4.92773C121.27 5.57582 121.628 6.46415 121.628 7.59273C121.628 7.96147 121.6 8.2911 121.544 8.58162C121.499 8.83863 121.432 9.11239 121.343 9.40291H114.857C114.846 9.46996 114.84 9.57611 114.84 9.72137C114.84 10.213 114.974 10.5874 115.242 10.8444C115.51 11.1014 115.868 11.2299 116.315 11.2299C117.03 11.2299 117.577 10.9282 117.957 10.3248H121.007C120.605 11.2746 119.952 12.0512 119.047 12.6545C118.142 13.2579 117.125 13.5596 115.996 13.5596C114.79 13.5596 113.823 13.2244 113.097 12.554C112.382 11.8835 112.024 10.9729 112.024 9.82194C112.024 9.47554 112.058 9.11798 112.125 8.74924C112.293 7.7771 112.639 6.92787 113.164 6.20157C113.689 5.47526 114.343 4.91656 115.125 4.52547C115.907 4.13438 116.762 3.93883 117.689 3.93883ZM118.728 7.94471C118.751 7.78827 118.762 7.68212 118.762 7.62625C118.762 7.17929 118.622 6.83848 118.343 6.60383C118.063 6.358 117.695 6.23509 117.237 6.23509C116.745 6.23509 116.309 6.38594 115.929 6.68763C115.561 6.97816 115.293 7.39718 115.125 7.94471H118.728ZM125.452 3.10078C125.005 3.10078 124.648 2.98346 124.38 2.7488C124.123 2.50297 123.994 2.19569 123.994 1.82695C123.994 1.32412 124.19 0.893919 124.581 0.536352C124.972 0.178784 125.447 0 126.005 0C126.452 0 126.804 0.122914 127.061 0.368742C127.318 0.603396 127.446 0.91068 127.446 1.2906C127.446 1.78225 127.251 2.20686 126.86 2.56443C126.469 2.922 126 3.10078 125.452 3.10078ZM126.692 4.07292L125.05 13.4256H122.184L123.826 4.07292H126.692Z" fill="white"/>
<path d="M80.9646 18.1667L80.7467 19.3568H75.6854L74.9815 23.3627H79.1043L78.8864 24.5527H74.7637L73.8251 29.8492H72.3L74.3782 18.1667H80.9646ZM83.4099 19.1724C83.1641 19.1724 82.9574 19.0942 82.7898 18.9377C82.6334 18.7701 82.5552 18.5634 82.5552 18.3176C82.5552 17.9824 82.6781 17.6974 82.9239 17.4628C83.1697 17.217 83.4546 17.094 83.7786 17.094C84.0356 17.094 84.2423 17.1723 84.3987 17.3287C84.5551 17.4851 84.6333 17.6918 84.6333 17.9489C84.6333 18.2841 84.5104 18.5746 84.2646 18.8204C84.0188 19.0551 83.7339 19.1724 83.4099 19.1724ZM83.8959 20.6641L82.2702 29.8492H80.7452L82.3708 20.6641H83.8959ZM91.0034 20.4965C91.9531 20.4965 92.7128 20.7535 93.2827 21.2675C93.8525 21.7704 94.1374 22.5078 94.1374 23.48C94.1374 23.8375 94.1094 24.156 94.0536 24.4354L93.0983 29.8492H91.59L92.5117 24.6533C92.5564 24.4186 92.5788 24.1728 92.5788 23.9158C92.5788 23.2342 92.3888 22.7146 92.009 22.357C91.6402 21.9994 91.1207 21.8206 90.4503 21.8206C89.6459 21.8206 88.9588 22.0721 88.389 22.5749C87.8303 23.0777 87.4672 23.8096 87.2996 24.7706V24.7371L86.3946 29.8492H84.8695L86.4952 20.6641H88.0202L87.7856 21.9883C88.1655 21.5078 88.6403 21.139 89.2102 20.882C89.78 20.625 90.3777 20.4965 91.0034 20.4965ZM95.8242 25.2231C95.9918 24.2845 96.3269 23.4632 96.8297 22.7593C97.3437 22.0441 97.9638 21.491 98.69 21.0999C99.4274 20.7088 100.21 20.5133 101.036 20.5133C101.841 20.5133 102.506 20.6865 103.031 21.0329C103.556 21.3793 103.919 21.8151 104.12 22.3402L104.422 20.6641H105.964L104.338 29.8492H102.796L103.114 28.1395C102.712 28.6759 102.182 29.1228 101.522 29.4804C100.863 29.8268 100.137 30 99.3436 30C98.6286 30 97.9973 29.8492 97.4498 29.5475C96.9023 29.2346 96.4778 28.7932 96.1761 28.2233C95.8744 27.6535 95.7236 26.9942 95.7236 26.2455C95.7236 25.9103 95.7571 25.5695 95.8242 25.2231ZM103.617 25.2399C103.662 25.0052 103.684 24.7538 103.684 24.4856C103.684 23.6699 103.438 23.0274 102.947 22.5581C102.466 22.0776 101.852 21.8374 101.103 21.8374C100.534 21.8374 99.9861 21.9715 99.4609 22.2397C98.947 22.5078 98.5057 22.8989 98.1369 23.4129C97.7682 23.9269 97.5224 24.5303 97.3995 25.2231C97.3548 25.4578 97.3325 25.7148 97.3325 25.9941C97.3325 26.821 97.5727 27.4747 98.0532 27.9552C98.5336 28.4245 99.1481 28.6591 99.8967 28.6591C100.466 28.6591 101.008 28.525 101.522 28.2569C102.047 27.9775 102.494 27.5808 102.863 27.0668C103.243 26.5417 103.494 25.9327 103.617 25.2399ZM113.049 20.4965C113.999 20.4965 114.759 20.7535 115.328 21.2675C115.898 21.7704 116.183 22.5078 116.183 23.48C116.183 23.8375 116.155 24.156 116.099 24.4354L115.144 29.8492H113.636L114.558 24.6533C114.602 24.4186 114.625 24.1728 114.625 23.9158C114.625 23.2342 114.435 22.7146 114.055 22.357C113.686 21.9994 113.166 21.8206 112.496 21.8206C111.692 21.8206 111.005 22.0721 110.435 22.5749C109.876 23.0777 109.513 23.8096 109.345 24.7706V24.7371L108.44 29.8492H106.915L108.541 20.6641H110.066L109.831 21.9883C110.211 21.5078 110.686 21.139 111.256 20.882C111.826 20.625 112.423 20.4965 113.049 20.4965ZM117.87 25.2399C118.038 24.2901 118.373 23.4632 118.875 22.7593C119.389 22.0441 120.021 21.491 120.769 21.0999C121.518 20.7088 122.328 20.5133 123.199 20.5133C124.328 20.5133 125.205 20.787 125.831 21.3346C126.467 21.8821 126.819 22.6419 126.886 23.6141H125.244C125.188 23.0554 124.959 22.614 124.557 22.2899C124.166 21.9659 123.635 21.8039 122.965 21.8039C122.093 21.8039 121.333 22.1056 120.685 22.709C120.049 23.3012 119.635 24.1448 119.445 25.2399C119.389 25.6086 119.361 25.9159 119.361 26.1617C119.361 26.9774 119.579 27.6088 120.015 28.0557C120.451 28.4915 121.032 28.7094 121.758 28.7094C122.428 28.7094 123.009 28.553 123.501 28.2401C124.004 27.9272 124.389 27.4803 124.657 26.8992H126.3C125.898 27.8378 125.278 28.5921 124.44 29.162C123.602 29.7207 122.63 30 121.523 30C120.373 30 119.456 29.6704 118.775 29.0111C118.105 28.3518 117.769 27.4523 117.769 26.3126C117.769 25.9662 117.803 25.6086 117.87 25.2399ZM133.429 20.5133C134.2 20.5133 134.865 20.6641 135.424 20.9658C135.994 21.2564 136.424 21.6698 136.714 22.2061C137.016 22.7313 137.167 23.3347 137.167 24.0163C137.167 24.251 137.139 24.5359 137.083 24.8711C137.038 25.1617 136.966 25.4634 136.865 25.7762H129.525C129.502 25.9997 129.491 26.1617 129.491 26.2623C129.491 27.0333 129.72 27.6367 130.178 28.0725C130.647 28.4971 131.256 28.7094 132.005 28.7094C132.664 28.7094 133.24 28.5586 133.731 28.2569C134.234 27.944 134.614 27.5306 134.871 27.0166H136.513C136.111 27.8993 135.491 28.62 134.653 29.1787C133.826 29.7262 132.865 30 131.77 30C130.62 30 129.692 29.6704 128.988 29.0111C128.296 28.3407 127.949 27.43 127.949 26.2791C127.949 25.955 127.983 25.6086 128.05 25.2399C128.217 24.2901 128.558 23.4576 129.072 22.7425C129.586 22.0274 130.217 21.4798 130.966 21.0999C131.726 20.7088 132.547 20.5133 133.429 20.5133ZM135.541 24.67C135.575 24.4465 135.591 24.2398 135.591 24.0499C135.591 23.3347 135.362 22.7816 134.904 22.3905C134.457 21.9994 133.871 21.8039 133.145 21.8039C132.362 21.8039 131.653 22.0609 131.016 22.5749C130.379 23.0777 129.949 23.7761 129.726 24.67H135.541Z" fill="white"/>
<path fill-rule="evenodd" clip-rule="evenodd" d="M64.0178 9.10738L60.3472 29.85H67.254L70.9243 9.10738H64.0178ZM71.3704 6.58762H64.4638L65.3554 1.54811H72.262L71.3704 6.58762Z" fill="#FCB100"/>
<path fill-rule="evenodd" clip-rule="evenodd" d="M41.9299 9.10738L38.2593 29.85H45.1661L47.1853 18.3196H55.8286L56.7979 13.0785H48.1549L48.8397 9.10738H41.9299ZM61.7254 1.54811C61.2062 4.46389 58.6709 6.58762 55.7092 6.58762H42.376L43.2675 1.54811H61.7254Z" fill="#FCB100"/>
<path fill-rule="evenodd" clip-rule="evenodd" d="M30.0183 9.10738H36.9248L33.2542 29.85H26.3477L30.0183 9.10738ZM37.3706 6.58762H30.4641L31.3559 1.54811H38.2625L37.3706 6.58762Z" fill="#FCB100"/>
<path fill-rule="evenodd" clip-rule="evenodd" d="M13.6939 1.54811L13.2309 4.17339L12.8114 6.58762H25.2948C24.9414 5.41461 24.2738 4.40671 23.2922 3.56392C21.7582 2.22005 19.5245 1.54811 16.5911 1.54811H13.6939ZM11.9169 1.54811L11.0256 6.58762H4.11429L5.0056 1.54811H11.9169ZM9.66371 14.288H9.64788L10.5615 9.10738H3.66863L0 29.85H6.90288L8.80016 19.1662H8.80092L9.66371 14.288ZM10.5446 19.4051L14.4516 29.85H22.2426L17.6811 18.6421C19.8878 18.0239 21.6505 16.9757 22.9692 15.4975C24.2879 14.0192 25.1087 12.3394 25.4317 10.458C25.5168 10.033 25.5682 9.58277 25.586 9.10738H18.3556C18.4172 9.34744 18.448 9.6095 18.448 9.89354C18.448 10.0279 18.4211 10.3101 18.3673 10.7402C18.152 11.869 17.6676 12.7425 16.9141 13.3607C16.1874 13.9789 15.1917 14.288 13.9269 14.288H11.4533L10.5446 19.4051Z" fill="#FCB100"/>
</g>
<defs>
<clipPath id="clip0">
<rect width="138" height="30" fill="white"/>
</clipPath>
</defs>
</svg>
