<svg xmlns="http://www.w3.org/2000/svg" width="173" height="50" viewBox="0 0 173 50" fill="none">
<path d="M19.9956 26.1093C19.9956 29.0966 22.4179 31.5119 25.3982 31.5119C28.3856 31.5119 30.8009 29.0896 30.8009 26.1093C30.8009 23.1219 28.3785 20.7066 25.3982 20.7066C22.4179 20.7066 19.9956 23.129 19.9956 26.1093ZM18.4631 10.2403C18.7526 9.29397 19.1199 8.3335 19.4659 7.86738C20.6594 6.27131 22.425 5.23315 24.4307 4.95772C26.4929 4.67523 28.5339 5.21903 30.1723 6.48318L30.2571 6.5538C30.2995 6.59617 30.3701 6.67386 30.4619 6.74448C32.4746 8.43943 32.8136 10.8618 32.8136 10.89L34.3885 23.0654C34.6216 24.0118 35.2007 24.8804 36.027 25.516C36.8109 26.1234 37.7572 26.4412 38.7318 26.4412C38.9225 26.4412 39.1203 26.4271 39.3109 26.4059C40.4903 26.2505 41.5356 25.6502 42.2559 24.7109C43.7531 22.7688 43.3929 19.9792 41.4508 18.482C40.6528 17.8676 39.6852 17.5357 38.6824 17.5639L38.3081 14.6542C39.2686 14.6331 40.2361 14.6754 40.7728 14.852C42.6655 15.4735 44.2122 16.8153 45.1091 18.6303C46.0342 20.4947 46.1684 22.5993 45.4904 24.5626L45.4481 24.6615C45.4198 24.7109 45.3774 24.8098 45.328 24.9157C44.3675 27.3522 42.1712 28.4539 42.15 28.4681L31.1116 33.8425C30.2924 34.3651 29.6497 35.1914 29.3107 36.1801C28.9223 37.303 28.9929 38.5106 29.5155 39.577C30.0311 40.6434 30.9351 41.4415 32.058 41.8299C32.5311 41.9923 33.0255 42.0771 33.5128 42.0771C34.1767 42.0771 34.8405 41.9288 35.4549 41.6251C36.5213 41.1025 37.3264 40.2056 37.7078 39.0827C38.0397 38.1293 38.0327 37.1052 37.7007 36.166L40.2997 34.9018C40.6104 35.8199 40.8717 36.8651 40.8646 37.4725C40.8434 39.4711 40.0313 41.3426 38.5765 42.748C37.0793 44.1958 35.123 44.9585 33.0396 44.9091L32.9266 44.902C32.8701 44.8879 32.7642 44.8738 32.6441 44.8667C30.024 44.6901 28.315 42.9316 28.2938 42.9175L19.8543 34.0261C19.1057 33.3975 18.1241 33.0444 17.0789 33.0162C15.8853 32.9809 14.7695 33.4187 13.9079 34.238C13.0463 35.0572 12.559 36.1589 12.5308 37.3454C12.4672 39.796 14.4164 41.837 16.8599 41.8935C17.8698 41.9217 18.8374 41.6039 19.6354 41.0036L21.6411 43.1082C20.8572 43.6944 20.0097 44.2523 19.4589 44.4218C17.552 45.015 15.5181 44.8173 13.7384 43.8568C11.9022 42.8751 10.5745 41.2367 9.98833 39.2451L9.96008 39.1392C9.95302 39.0827 9.93889 38.9767 9.90358 38.8638C9.27504 36.3284 10.4191 34.1461 10.4333 34.125L16.3091 23.3479C16.6763 22.4439 16.7187 21.3987 16.4221 20.4029C15.73 18.0512 13.2582 16.7023 10.9064 17.3944C8.55469 18.0865 7.20579 20.5583 7.89789 22.9101C8.18038 23.8776 8.78068 24.7039 9.5999 25.283L8.20157 27.8466C7.38941 27.2887 6.59137 26.6601 6.24532 26.187C5.07298 24.5697 4.61393 22.5781 4.95292 20.5866C5.29897 18.5385 6.42188 16.7517 8.12389 15.5582C8.14507 15.5441 8.1592 15.537 8.18038 15.5229L8.2157 15.5017C8.27219 15.4735 8.36401 15.424 8.46288 15.3605C10.6663 13.9551 13.0957 14.3435 13.124 14.3506L25.2146 16.4763C26.1892 16.5399 27.1921 16.2433 28.0466 15.643C29.0212 14.965 29.6709 13.9409 29.8757 12.7757C30.0805 11.6104 29.8192 10.431 29.1412 9.4564C28.4633 8.4818 27.4392 7.83914 26.274 7.62727C25.1016 7.42246 23.9293 7.68376 22.9547 8.36174C22.1284 8.94085 21.5352 9.76714 21.2456 10.7276L18.4631 10.2403ZM23.9081 0.120059C20.5888 0.550858 17.6368 2.24581 15.5958 4.8871C14.5082 6.37724 13.9573 8.1075 13.6113 9.3999C11.6338 9.18803 8.92192 9.79539 8.80187 9.82364C7.59422 10.2121 6.37244 10.8194 5.33428 11.5539C2.60118 13.4678 0.772048 16.3421 0.192941 19.6402C-0.386166 22.9383 0.34831 26.2646 2.26219 28.9977C3.33566 30.4384 4.76224 31.4625 5.87808 32.1758C5.07298 33.9978 4.81874 36.7804 4.80461 36.9075C4.78343 38.207 4.95292 39.4499 5.29897 40.6293C6.23826 43.8356 8.37813 46.484 11.3231 48.0871C13.1946 49.1041 15.2427 49.6267 17.3119 49.6267C18.4984 49.6267 19.6848 49.4572 20.8501 49.1111C22.5804 48.5461 24.0282 47.5009 25.0592 46.6605C26.5282 47.9812 29.0071 49.0758 29.1201 49.1252C30.3206 49.5278 31.6625 49.7609 32.9337 49.7962C33.0396 49.7962 33.1385 49.8032 33.2444 49.8032C40.0101 49.8032 45.5964 44.3865 45.7588 37.5855C45.7517 35.7705 45.1868 34.0402 44.6924 32.7478C46.4085 31.7591 48.2377 29.6898 48.3153 29.591L48.3718 29.5274L48.4142 29.4003C49.1416 28.3904 49.7137 27.3028 50.1092 26.1587C51.1968 23.0019 50.992 19.6049 49.5301 16.5893C48.0611 13.5808 45.5187 11.3208 42.3618 10.2262C40.6881 9.70358 38.9649 9.69652 37.6513 9.76714C37.2346 7.83913 35.8928 5.50858 35.8363 5.40265C35.1089 4.36449 34.1625 3.38283 33.1526 2.60598C30.9421 0.903972 28.2867 0 25.5395 0C25.0027 0.0141246 24.4519 0.049436 23.9081 0.120059Z" fill="white"/>
<path d="M67.1785 37.4231C65.3423 37.4231 63.8028 37.0771 62.5386 36.385C61.2815 35.6929 60.1869 34.8242 59.2617 33.7861L62.7081 31.1942C63.2237 32.0417 63.8663 32.6914 64.622 33.1363C65.3777 33.5883 66.2251 33.8143 67.1503 33.8143C68.1531 33.8143 68.9159 33.5459 69.4385 33.0021C69.9681 32.4654 70.2294 31.851 70.2294 31.166C70.2294 30.7563 70.1094 30.4032 69.8693 30.1137C69.6291 29.8241 69.3113 29.5769 68.9229 29.3721C68.5345 29.1673 68.0825 28.9837 67.574 28.8213C67.0655 28.6588 66.5429 28.4964 66.0062 28.334C65.3212 28.1221 64.6361 27.882 63.9511 27.6348C63.266 27.3806 62.6516 27.0486 62.1008 26.6249C61.557 26.2012 61.112 25.6786 60.766 25.0571C60.427 24.4356 60.2504 23.6587 60.2504 22.7265C60.2504 21.9355 60.4199 21.2011 60.7519 20.516C61.0838 19.831 61.5499 19.2378 62.1573 18.7222C62.7575 18.2137 63.4708 17.8112 64.2971 17.5216C65.1234 17.2321 66.0133 17.0908 66.9737 17.0908C67.7859 17.0908 68.5274 17.1685 69.1842 17.3168C69.841 17.4651 70.4413 17.6699 70.9922 17.9242C71.536 18.1855 72.0374 18.4962 72.4894 18.8564C72.9414 19.2166 73.3722 19.6121 73.7818 20.0358L70.6744 22.4582C69.8057 21.1234 68.5839 20.4595 67.009 20.4595C66.0839 20.4595 65.3777 20.6714 64.8974 21.1093C64.4172 21.5401 64.1771 22.0697 64.1771 22.6983C64.1771 23.0938 64.2901 23.4257 64.509 23.6941C64.7279 23.9624 65.0316 24.2025 65.413 24.4073C65.7943 24.6122 66.2322 24.7958 66.7336 24.9582C67.235 25.1206 67.7576 25.2901 68.3156 25.4738C69.0006 25.6927 69.6927 25.9399 70.3848 26.2153C71.0769 26.4978 71.7055 26.8509 72.2704 27.2958C72.8354 27.7337 73.2945 28.2775 73.6476 28.9131C74.0007 29.5487 74.1773 30.3467 74.1773 31.3001C74.1773 32.0699 74.0219 32.8256 73.7041 33.5671C73.3863 34.3016 72.9343 34.9584 72.3411 35.5234C71.7478 36.0884 71.0204 36.5474 70.1447 36.9005C69.2831 37.2536 68.2873 37.4231 67.1785 37.4231Z" fill="white"/>
<path d="M75.4277 17.183C75.4277 16.4768 75.6396 15.9118 76.0633 15.4739C76.4871 15.0361 77.0662 14.8242 77.7865 14.8242C78.5281 14.8242 79.1072 15.0431 79.5239 15.4739C79.9405 15.9118 80.1453 16.4768 80.1453 17.183C80.1453 17.8893 79.9405 18.4542 79.5239 18.878C79.1072 19.3017 78.5281 19.5136 77.7865 19.5136C77.0309 19.5136 76.4447 19.3017 76.0351 18.878C75.6325 18.4472 75.4277 17.8822 75.4277 17.183ZM75.9009 21.152H79.6792V37.3953H75.9009V21.152Z" fill="white"/>
<path d="M81.8398 21.1513H85.5617V23.3689C86.0984 22.6909 86.7764 22.1471 87.6027 21.7375C88.429 21.3279 89.3682 21.123 90.4205 21.123C92.4403 21.123 94.0152 21.7233 95.1523 22.9239C96.2893 24.1245 96.8613 25.7983 96.8613 27.9382V37.3946H93.0548V28.3619C93.0548 27.1331 92.7511 26.1585 92.1367 25.4452C91.5222 24.7319 90.6112 24.3717 89.3894 24.3717C88.316 24.3717 87.412 24.7389 86.6846 25.4805C85.9501 26.222 85.5899 27.2884 85.5899 28.6797V37.3875H81.8398V21.1513Z" fill="white"/>
<path d="M111.805 34.9298C111.212 35.7067 110.456 36.3211 109.531 36.766C108.606 37.2109 107.596 37.4299 106.502 37.4299C105.52 37.4299 104.552 37.2462 103.599 36.879C102.646 36.5118 101.791 35.9821 101.028 35.2829C100.266 34.5838 99.6582 33.7363 99.1921 32.7264C98.726 31.7165 98.5 30.5724 98.5 29.287C98.5 27.9876 98.726 26.8294 99.178 25.8195C99.63 24.8096 100.23 23.9621 100.979 23.2629C101.727 22.5638 102.589 22.0341 103.564 21.6739C104.538 21.3067 105.534 21.123 106.551 21.123C107.624 21.123 108.613 21.3349 109.524 21.7516C110.428 22.1683 111.184 22.7332 111.777 23.4465V21.1513H115.527V36.7801C115.527 37.9101 115.344 38.9694 114.983 39.9582C114.623 40.9469 114.086 41.8085 113.387 42.55C112.681 43.2916 111.812 43.8777 110.76 44.3015C109.715 44.7323 108.507 44.9441 107.137 44.9441C106.078 44.9441 105.124 44.8311 104.263 44.5981C103.401 44.365 102.631 44.0402 101.946 43.6235C101.261 43.2068 100.661 42.7195 100.138 42.1545C99.6229 41.5895 99.178 40.961 98.8037 40.276L102.137 38.2491C102.73 39.3437 103.394 40.1559 104.136 40.6926C104.877 41.2294 105.894 41.4977 107.194 41.4977C107.9 41.4977 108.535 41.3706 109.108 41.1093C109.68 40.848 110.167 40.509 110.562 40.0853C110.958 39.6615 111.269 39.1601 111.48 38.5881C111.692 38.016 111.798 37.4228 111.798 36.8084V34.9298H111.805ZM107.116 33.9835C107.822 33.9835 108.465 33.8634 109.058 33.6162C109.651 33.3761 110.16 33.0301 110.584 32.5993C111.007 32.1614 111.346 31.66 111.601 31.0879C111.855 30.5159 111.975 29.8944 111.975 29.2376C111.975 28.5949 111.848 27.9876 111.601 27.4085C111.353 26.8364 111.014 26.335 110.584 25.9113C110.16 25.4875 109.651 25.1485 109.058 24.9084C108.465 24.6613 107.815 24.5412 107.116 24.5412C106.431 24.5412 105.788 24.6613 105.188 24.9084C104.588 25.1556 104.065 25.4805 103.62 25.8972C103.175 26.3138 102.829 26.8082 102.582 27.3873C102.335 27.9593 102.208 28.5808 102.208 29.2376C102.208 29.9015 102.335 30.5229 102.582 31.1021C102.829 31.6812 103.182 32.1896 103.62 32.6134C104.065 33.0371 104.588 33.3761 105.188 33.6162C105.788 33.8634 106.431 33.9835 107.116 33.9835Z" fill="white"/>
<path d="M124.638 37.4231C122.801 37.4231 121.262 37.0771 119.998 36.385C118.741 35.6929 117.646 34.8242 116.721 33.7861L120.167 31.1942C120.683 32.0417 121.325 32.6914 122.081 33.1363C122.837 33.5883 123.684 33.8143 124.609 33.8143C125.612 33.8143 126.375 33.5459 126.897 33.0021C127.427 32.4654 127.688 31.851 127.688 31.166C127.688 30.7563 127.568 30.4032 127.328 30.1137C127.088 29.8241 126.77 29.5769 126.382 29.3721C125.993 29.1673 125.541 28.9837 125.033 28.8213C124.525 28.6588 124.002 28.4964 123.465 28.334C122.78 28.1221 122.095 27.882 121.41 27.6348C120.725 27.3806 120.111 27.0486 119.567 26.6249C119.023 26.2012 118.578 25.6786 118.232 25.0571C117.886 24.4356 117.716 23.6587 117.716 22.7265C117.716 21.9355 117.886 21.2011 118.218 20.516C118.55 19.831 119.016 19.2378 119.623 18.7222C120.224 18.2137 120.937 17.8112 121.763 17.5216C122.589 17.2321 123.479 17.0908 124.44 17.0908C125.252 17.0908 125.986 17.1685 126.65 17.3168C127.307 17.4651 127.907 17.6699 128.458 17.9242C129.002 18.1855 129.503 18.4962 129.955 18.8564C130.407 19.2166 130.838 19.6121 131.248 20.0358L128.14 22.4582C127.272 21.1234 126.05 20.4595 124.475 20.4595C123.55 20.4595 122.844 20.6714 122.363 21.1093C121.883 21.5401 121.643 22.0697 121.643 22.6983C121.643 23.0938 121.756 23.4257 121.975 23.6941C122.201 23.9624 122.498 24.2025 122.879 24.4073C123.26 24.6122 123.698 24.7958 124.2 24.9582C124.701 25.1206 125.224 25.2901 125.782 25.4738C126.467 25.6927 127.159 25.9399 127.851 26.2153C128.543 26.4978 129.172 26.8509 129.736 27.2958C130.301 27.7337 130.761 28.2775 131.114 28.9131C131.467 29.5487 131.643 30.3467 131.643 31.3001C131.643 32.0699 131.488 32.8256 131.17 33.5671C130.852 34.3016 130.4 34.9584 129.807 35.5234C129.214 36.0884 128.479 36.5474 127.611 36.9005C126.742 37.2536 125.746 37.4231 124.638 37.4231Z" fill="white"/>
<path d="M132.887 17.183C132.887 16.4768 133.099 15.9118 133.522 15.4739C133.946 15.0361 134.525 14.8242 135.246 14.8242C135.987 14.8242 136.566 15.0431 136.983 15.4739C137.4 15.9118 137.611 16.4768 137.611 17.183C137.611 17.8893 137.4 18.4542 136.983 18.878C136.566 19.3017 135.987 19.5136 135.246 19.5136C134.49 19.5136 133.904 19.3017 133.494 18.878C133.092 18.4472 132.887 17.8822 132.887 17.183ZM133.36 21.152H137.138V37.3953H133.36V21.152Z" fill="white"/>
<path d="M139.3 21.1513H143.022V23.3689C143.559 22.6909 144.237 22.1471 145.063 21.7375C145.889 21.3279 146.828 21.123 147.881 21.123C149.901 21.123 151.475 21.7233 152.612 22.9239C153.749 24.1245 154.322 25.7983 154.322 27.9382V37.3946H150.515V28.3619C150.515 27.1331 150.211 26.1585 149.597 25.4452C148.982 24.7319 148.071 24.3717 146.85 24.3717C145.776 24.3717 144.872 24.7389 144.138 25.4805C143.403 26.222 143.043 27.2884 143.043 28.6797V37.3875H139.293V21.1513H139.3Z" fill="white"/>
<path d="M169.263 34.9298C168.67 35.7067 167.914 36.3211 166.989 36.766C166.064 37.2109 165.054 37.4299 163.959 37.4299C162.978 37.4299 162.01 37.2462 161.057 36.879C160.103 36.5118 159.249 35.9821 158.486 35.2829C157.73 34.5838 157.116 33.7363 156.657 32.7264C156.191 31.7165 155.965 30.5724 155.965 29.287C155.965 27.9876 156.191 26.8294 156.643 25.8195C157.095 24.8096 157.695 23.9621 158.451 23.2629C159.199 22.5638 160.061 22.0341 161.036 21.6739C162.01 21.3067 163.006 21.123 164.023 21.123C165.096 21.123 166.085 21.3349 166.996 21.7516C167.9 22.1683 168.656 22.7332 169.249 23.4465V21.1513H172.999V36.7801C172.999 37.9101 172.815 38.9694 172.455 39.9582C172.095 40.9469 171.565 41.8085 170.859 42.55C170.153 43.2916 169.277 43.8777 168.232 44.3015C167.187 44.7323 165.979 44.9441 164.609 44.9441C163.55 44.9441 162.596 44.8311 161.735 44.5981C160.873 44.365 160.103 44.0402 159.418 43.6235C158.733 43.2068 158.133 42.7195 157.61 42.1545C157.095 41.5895 156.65 40.961 156.276 40.276L159.609 38.2491C160.202 39.3437 160.866 40.1559 161.608 40.6926C162.349 41.2294 163.366 41.4977 164.666 41.4977C165.372 41.4977 166.007 41.3706 166.579 41.1093C167.152 40.848 167.639 40.509 168.034 40.0853C168.43 39.6615 168.741 39.1601 168.952 38.5881C169.164 38.016 169.27 37.4228 169.27 36.8084V34.9298H169.263ZM164.574 33.9835C165.28 33.9835 165.923 33.8634 166.516 33.6162C167.109 33.3761 167.618 33.0301 168.041 32.5993C168.465 32.1614 168.804 31.66 169.051 31.0879C169.298 30.5159 169.426 29.8944 169.426 29.2376C169.426 28.5949 169.298 27.9876 169.051 27.4085C168.804 26.8364 168.465 26.335 168.041 25.9113C167.618 25.4875 167.109 25.1485 166.516 24.9084C165.923 24.6613 165.273 24.5412 164.574 24.5412C163.889 24.5412 163.246 24.6613 162.646 24.9084C162.045 25.1556 161.523 25.4805 161.078 25.8972C160.633 26.3138 160.287 26.8082 160.04 27.3873C159.793 27.9593 159.665 28.5808 159.665 29.2376C159.665 29.9015 159.793 30.5229 160.04 31.1021C160.287 31.6812 160.64 32.1896 161.078 32.6134C161.523 33.0371 162.045 33.3761 162.646 33.6162C163.239 33.8634 163.889 33.9835 164.574 33.9835Z" fill="white"/>
</svg>