<svg xmlns="http://www.w3.org/2000/svg" width="938" height="326" viewBox="0 0 938 326" fill="none"> <path d="M12.0355 282.16C11.5395 282.16 11.1055 282.346 10.7955 282.656C10.4235 283.028 10.2375 283.462 10.2375 283.958C10.2375 284.454 10.4235 284.888 10.7955 285.26C11.1055 285.57 11.5395 285.756 12.0355 285.756H41.4855L12.5935 322.646C12.2835 323.018 12.1595 323.328 12.1595 323.7C12.1595 323.948 12.2215 324.258 12.4075 324.506C12.7175 325.25 13.2755 325.56 14.0195 325.56H44.3375C44.8335 325.56 45.2675 325.374 45.6395 325.002C45.9495 324.692 46.1355 324.258 46.1355 323.762C46.1355 323.266 45.9495 322.832 45.6395 322.46C45.2675 322.088 44.8335 321.964 44.3375 321.964H17.7395L46.6315 285.074C46.8795 284.764 47.0035 284.392 47.0035 284.02C47.0035 283.772 46.9415 283.462 46.8175 283.152C46.5075 282.47 45.9495 282.16 45.2055 282.16H12.0355Z" fill="white"/> <path d="M88.8879 285.508C93.9099 285.508 98.2498 287.306 101.846 290.902C105.442 294.498 107.24 298.838 107.24 303.86C107.24 308.944 105.442 313.222 101.846 316.818C98.2498 320.414 93.9099 322.212 88.8879 322.212C83.8039 322.212 79.5258 320.414 75.9298 316.818C72.3338 313.222 70.5359 308.944 70.5359 303.86C70.5359 298.838 72.3338 294.498 75.9298 290.902C79.5258 287.306 83.8039 285.508 88.8879 285.508ZM88.8879 325.87C94.9639 325.87 100.172 323.7 104.45 319.422C108.728 315.144 110.898 309.936 110.898 303.86C110.898 297.784 108.728 292.576 104.45 288.298C100.172 284.02 94.9639 281.85 88.8879 281.85C82.8119 281.85 77.6039 284.02 73.3259 288.298C69.0479 292.576 66.8779 297.784 66.8779 303.86C66.8779 309.936 69.0479 315.144 73.3259 319.422C77.6039 323.7 82.8119 325.87 88.8879 325.87Z" fill="white"/> <path d="M133.811 323.824C133.811 325.002 134.617 325.56 135.485 325.56C136.353 325.56 137.221 325.002 137.221 323.824V289.29L163.633 324.506C164.129 325.188 164.749 325.498 165.245 325.498C166.051 325.498 166.671 324.754 166.671 323.514V284.02C166.671 282.904 165.803 282.346 164.935 282.346C164.067 282.346 163.261 282.904 163.261 284.02V318.554L136.911 283.09C136.415 282.47 135.857 282.16 135.361 282.16C134.555 282.16 133.811 282.904 133.811 284.144V323.824Z" fill="white"/> <path d="M218.248 305.658C219.426 305.658 219.984 304.79 219.984 303.86C219.984 302.992 219.426 302.062 218.248 302.062H191.402C190.41 302.062 189.604 302.93 189.604 303.86V323.762C189.604 324.754 190.41 325.56 191.402 325.56H218.248C219.426 325.56 219.984 324.692 219.984 323.824C219.984 322.956 219.426 322.026 218.248 322.026H193.138V305.658H218.248ZM218.248 285.694C219.426 285.694 219.984 284.826 219.984 283.958C219.984 283.09 219.426 282.16 218.248 282.16H191.402C190.162 282.16 189.604 283.09 189.604 283.958C189.604 284.826 190.162 285.694 191.402 285.694H218.248Z" fill="white"/> <path d="M312.664 285.508C317.686 285.508 322.026 287.306 325.622 290.902C329.218 294.498 331.016 298.838 331.016 303.86C331.016 308.944 329.218 313.222 325.622 316.818C322.026 320.414 317.686 322.212 312.664 322.212C307.58 322.212 303.302 320.414 299.706 316.818C296.11 313.222 294.312 308.944 294.312 303.86C294.312 298.838 296.11 294.498 299.706 290.902C303.302 287.306 307.58 285.508 312.664 285.508ZM312.664 325.87C318.74 325.87 323.948 323.7 328.226 319.422C332.504 315.144 334.674 309.936 334.674 303.86C334.674 297.784 332.504 292.576 328.226 288.298C323.948 284.02 318.74 281.85 312.664 281.85C306.588 281.85 301.38 284.02 297.102 288.298C292.824 292.576 290.654 297.784 290.654 303.86C290.654 309.936 292.824 315.144 297.102 319.422C301.38 323.7 306.588 325.87 312.664 325.87Z" fill="white"/> <path d="M375.382 305.658C376.56 305.658 377.118 304.79 377.118 303.86C377.118 302.992 376.56 302.062 375.382 302.062H359.386C358.394 302.062 357.588 302.93 357.588 303.86V323.762C357.588 325.002 358.456 325.56 359.324 325.56C360.192 325.56 361.122 325.002 361.122 323.762V305.658H375.382ZM386.232 285.694C387.41 285.694 387.968 284.826 387.968 283.958C387.968 283.09 387.41 282.16 386.232 282.16H359.386C358.146 282.16 357.588 283.09 357.588 283.958C357.588 284.826 358.146 285.694 359.386 285.694H386.232Z" fill="white"/> <path d="M458.638 323.824C458.638 325.002 459.506 325.56 460.374 325.56C461.242 325.56 462.11 325.002 462.11 323.824V300.388C462.11 292.266 468.682 285.632 476.866 285.632C485.05 285.632 491.684 292.266 491.684 300.388V323.824C491.684 325.002 492.552 325.56 493.42 325.56C494.288 325.56 495.156 325.002 495.156 323.824V300.388C495.156 290.344 486.972 282.16 476.866 282.16C466.822 282.16 458.638 290.344 458.638 300.388V323.824Z" fill="white"/> <path d="M552.112 284.764C552.298 284.454 552.36 284.144 552.36 283.834C552.36 282.904 551.554 282.16 550.624 282.16C550.066 282.16 549.57 282.408 549.198 283.028C548.702 283.834 544.486 294.002 540.518 303.736L534.008 319.484L518.322 283.214C518.012 282.47 517.454 282.16 516.834 282.16C515.966 282.16 515.036 282.842 515.036 283.834C515.036 284.082 515.098 284.33 515.222 284.578L532.52 324.568C532.892 325.436 533.45 325.87 534.07 325.87C534.69 325.87 535.31 325.436 535.682 324.568C535.682 324.382 551.492 285.88 552.112 284.764Z" fill="white"/> <path d="M594.231 285.508C599.253 285.508 603.593 287.306 607.189 290.902C610.785 294.498 612.583 298.838 612.583 303.86C612.583 308.944 610.785 313.222 607.189 316.818C603.593 320.414 599.253 322.212 594.231 322.212C589.147 322.212 584.87 320.414 581.273 316.818C577.677 313.222 575.879 308.944 575.879 303.86C575.879 298.838 577.677 294.498 581.273 290.902C584.87 287.306 589.147 285.508 594.231 285.508ZM594.231 325.87C600.307 325.87 605.515 323.7 609.793 319.422C614.071 315.144 616.241 309.936 616.241 303.86C616.241 297.784 614.071 292.576 609.793 288.298C605.515 284.02 600.307 281.85 594.231 281.85C588.155 281.85 582.948 284.02 578.669 288.298C574.391 292.576 572.221 297.784 572.221 303.86C572.221 309.936 574.391 315.144 578.669 319.422C582.948 323.7 588.155 325.87 594.231 325.87Z" fill="white"/> <path d="M642.813 283.958C642.813 283.462 642.627 283.028 642.255 282.718C641.883 282.346 641.449 282.16 640.953 282.16C640.457 282.16 640.023 282.346 639.713 282.718C639.341 283.028 639.155 283.462 639.155 283.958V323.762C639.155 324.258 639.341 324.692 639.713 325.002C640.023 325.374 640.457 325.56 640.953 325.56C641.449 325.56 641.883 325.374 642.255 325.002C642.627 324.692 642.813 324.258 642.813 323.762V283.958Z" fill="white"/> <path d="M667.562 282.16C666.322 282.16 665.764 283.09 665.764 283.958C665.764 284.826 666.322 285.694 667.562 285.694H679.59C689.572 285.694 697.694 293.816 697.694 303.86C697.694 313.904 689.572 322.026 679.59 322.026H667.562C666.322 322.026 665.764 322.956 665.764 323.824C665.764 324.692 666.322 325.56 667.562 325.56H679.59C691.556 325.56 701.29 315.826 701.29 303.86C701.29 291.894 691.556 282.16 679.59 282.16H667.562Z" fill="white"/> <path d="M724.221 323.824C724.221 325.002 725.089 325.56 725.957 325.56C726.825 325.56 727.693 325.002 727.693 323.824V300.388C727.693 292.266 734.265 285.632 742.449 285.632C750.633 285.632 757.267 292.266 757.267 300.388V323.824C757.267 325.002 758.135 325.56 759.003 325.56C759.871 325.56 760.739 325.002 760.739 323.824V300.388C760.739 290.344 752.555 282.16 742.449 282.16C732.405 282.16 724.221 290.344 724.221 300.388V323.824Z" fill="white"/> <path d="M783.707 323.824C783.707 325.002 784.513 325.56 785.381 325.56C786.249 325.56 787.117 325.002 787.117 323.824V289.29L813.529 324.506C814.025 325.188 814.645 325.498 815.141 325.498C815.947 325.498 816.567 324.754 816.567 323.514V284.02C816.567 282.904 815.699 282.346 814.831 282.346C813.963 282.346 813.157 282.904 813.157 284.02V318.554L786.807 283.09C786.311 282.47 785.753 282.16 785.257 282.16C784.451 282.16 783.707 282.904 783.707 284.144V323.824Z" fill="white"/> <path d="M872.174 325.56C873.352 325.56 873.91 324.692 873.91 323.824C873.91 322.956 873.352 322.026 872.174 322.026H861.2C851.156 322.026 843.034 313.904 843.034 303.86C843.034 293.816 851.156 285.694 861.2 285.694H872.174C873.352 285.694 873.91 284.826 873.91 283.958C873.91 283.09 873.352 282.16 872.174 282.16H861.2C849.234 282.16 839.5 291.894 839.5 303.86C839.5 315.826 849.234 325.56 861.2 325.56H872.174Z" fill="white"/> <path d="M925.51 305.658C926.688 305.658 927.247 304.79 927.247 303.86C927.247 302.992 926.688 302.062 925.51 302.062H898.664C897.672 302.062 896.867 302.93 896.867 303.86V323.762C896.867 324.754 897.672 325.56 898.664 325.56H925.51C926.688 325.56 927.247 324.692 927.247 323.824C927.247 322.956 926.688 322.026 925.51 322.026H900.401V305.658H925.51ZM925.51 285.694C926.688 285.694 927.247 284.826 927.247 283.958C927.247 283.09 926.688 282.16 925.51 282.16H898.664C897.424 282.16 896.867 283.09 896.867 283.958C896.867 284.826 897.424 285.694 898.664 285.694H925.51Z" fill="white"/> <path d="M170.278 161.979H87.9051L207.161 60.2426H289.841L170.278 161.979ZM356.538 3.99569L297.217 54.0954H0L35.9612 3.99569H356.538ZM80.2211 168.126H378.361L342.399 218.226H22.1299L80.2211 168.126Z" fill="white"/> <path d="M470.001 219.987C518.262 219.987 553.209 184.208 553.209 141.494C553.209 98.2263 518.539 63.0016 470.556 63.0016C422.295 63.0016 387.348 98.7811 387.348 141.494C387.348 184.763 422.018 219.987 470.001 219.987ZM470.556 175.332C451.973 175.332 438.659 159.8 438.659 141.494C438.659 122.911 450.863 107.657 470.001 107.657C488.584 107.657 501.897 123.189 501.897 141.494C501.897 160.078 489.694 175.332 470.556 175.332Z" fill="white"/> <path d="M911.248 165.975L906.33 173.044L879.59 209.62L877.131 213.308H562.394L580.528 188.412L629.706 119.563L696.096 27.3551C697.12 25.9207 698.145 24.5888 699.169 23.3594C713.308 7.78647 730.417 0 750.498 0C772.218 0 789.431 8.09383 802.135 24.2815C806.848 30.2238 818.015 45.6942 835.637 70.6929L839.94 76.5327L870.676 119.563L897.417 157.368H836.252L830.105 148.455L792.914 97.1259L769.247 65.7751C764.125 59.2181 757.465 55.9396 749.269 55.9396C740.663 55.9396 733.901 59.5255 728.983 66.6972L707.468 97.1259L670.585 148.455L659.827 163.516H913.092L911.248 165.975ZM911.248 176.425L937.373 213.308H884.815L911.248 176.425Z" fill="white"/> </svg>